<svg width="25" height="25" viewBox="0 0 25 25" fill="none" xmlns="http://www.w3.org/2000/svg">
<path d="M9.37467 22.9167C9.94997 22.9167 10.4163 22.4503 10.4163 21.875C10.4163 21.2997 9.94997 20.8333 9.37467 20.8333C8.79938 20.8333 8.33301 21.2997 8.33301 21.875C8.33301 22.4503 8.79938 22.9167 9.37467 22.9167Z" stroke="black" stroke-width="2" stroke-linecap="round" stroke-linejoin="round"/>
<path d="M20.8337 22.9167C21.409 22.9167 21.8753 22.4503 21.8753 21.875C21.8753 21.2997 21.409 20.8333 20.8337 20.8333C20.2584 20.8333 19.792 21.2997 19.792 21.875C19.792 22.4503 20.2584 22.9167 20.8337 22.9167Z" stroke="black" stroke-width="2" stroke-linecap="round" stroke-linejoin="round"/>
<path d="M1.04199 1.04167H5.20866L8.00033 14.9896C8.09558 15.4692 8.35648 15.9 8.73735 16.2066C9.11822 16.5132 9.5948 16.676 10.0837 16.6667H20.2087C20.6975 16.676 21.1741 16.5132 21.555 16.2066C21.9358 15.9 22.1967 15.4692 22.292 14.9896L23.9587 6.25H6.25033" stroke="black" stroke-width="2" stroke-linecap="round" stroke-linejoin="round"/>
</svg>
