<svg width="720" height="481" viewBox="0 0 720 481" fill="none" xmlns="http://www.w3.org/2000/svg">
<path d="M43.789 14.0382C42.7964 10.8099 40.7789 8.60028 38.4514 8.60028C35.1416 8.60028 32.4584 13.0687 32.4584 18.5808C32.4449 20.3741 32.7494 22.1556 33.358 23.8425C36.632 31.792 40.6678 38.221 44.3783 40.9458C44.4739 41.0377 44.6 41.0911 44.7325 41.0958C44.8649 41.1005 44.9945 41.0561 45.0963 40.9712C49.4238 38.9534 54.0844 30.9814 56.6851 25.0569C57.1602 23.8273 57.4763 22.5421 57.6256 21.2325C58.2678 15.758 56.0586 10.9998 52.6912 10.6047C50.2235 10.3152 47.8187 12.449 46.4572 15.7642L45.2357 18.6566C45.2254 18.6811 45.2077 18.7017 45.185 18.7156C45.1623 18.7295 45.1359 18.736 45.1094 18.7341C45.0829 18.7322 45.0576 18.722 45.0372 18.7051C45.0167 18.6881 45.0021 18.6651 44.9954 18.6394L43.789 14.0382Z" fill="#FFE76E"/>
<path d="M246.572 28.7332C248.711 26.1191 249.434 23.2155 248.145 21.2774C246.312 18.5214 241.106 18.7614 236.516 21.8137C235.015 22.7954 233.7 24.0355 232.632 25.4763C227.826 32.6045 224.707 39.525 224.493 44.1235C224.469 44.254 224.495 44.3886 224.564 44.5015C224.634 44.6144 224.742 44.6978 224.869 44.7355C228.946 47.2217 238.165 46.6882 244.538 45.5732C245.825 45.288 247.07 44.8395 248.244 44.2386C253.158 41.742 255.897 37.2676 254.361 34.2448C253.236 32.0297 250.127 31.2088 246.613 31.9108L243.528 32.4953C243.502 32.5002 243.475 32.4969 243.451 32.4857C243.427 32.4745 243.406 32.4561 243.393 32.433C243.38 32.4098 243.375 32.3832 243.378 32.3568C243.38 32.3303 243.391 32.3055 243.409 32.2856L246.572 28.7332Z" fill="#FFE76E"/>
<path d="M15.6712 99.6479C12.4732 98.5615 9.50054 98.9026 8.13728 100.789C6.19863 103.472 8.24872 108.264 12.7163 111.492C14.1618 112.554 15.7841 113.35 17.5078 113.845C25.8686 115.848 33.4432 116.342 37.8251 114.931C38.2161 114.8 38.2303 114.627 38.2663 114.364C39.1656 109.674 35.434 101.228 32.1555 95.6495C31.4372 94.5443 30.5806 93.5354 29.6066 92.6472C25.5456 88.9201 20.3951 87.9237 18.1025 90.4216C16.4225 92.2521 16.7434 95.451 18.6329 98.4963L20.2618 101.181C20.2756 101.203 20.2819 101.23 20.2799 101.256C20.2779 101.283 20.2676 101.308 20.2505 101.328C20.2335 101.349 20.2105 101.363 20.1847 101.37C20.159 101.376 20.1318 101.375 20.107 101.365L15.6712 99.6479Z" fill="#FFE76E"/>
<path d="M692.226 243.475C690.349 240.667 687.782 239.129 685.553 239.797C682.382 240.746 681.093 245.797 682.675 251.077C683.176 252.799 683.979 254.418 685.046 255.86C690.463 262.536 696.174 267.537 700.51 269.082C700.628 269.143 700.764 269.158 700.892 269.124C701.02 269.091 701.132 269.011 701.205 268.901C704.772 265.726 706.949 256.752 707.741 250.331C707.843 249.016 707.777 247.695 707.545 246.397C706.589 240.969 703.108 237.044 699.769 237.632C697.322 238.062 695.63 240.796 695.277 244.363L694.937 247.484C694.934 247.511 694.923 247.535 694.905 247.555C694.887 247.575 694.864 247.589 694.838 247.595C694.812 247.6 694.785 247.598 694.76 247.587C694.736 247.577 694.715 247.559 694.702 247.537L692.226 243.475Z" fill="#FFE76E"/>
<path d="M641.92 167.921C642.5 164.593 641.704 161.709 639.629 160.653C636.68 159.152 632.262 161.918 629.762 166.831C628.937 168.423 628.4 170.149 628.177 171.928C627.49 180.498 628.171 188.058 630.243 192.169C630.286 192.295 630.374 192.399 630.49 192.464C630.606 192.528 630.742 192.547 630.871 192.518C635.643 192.682 643.412 187.69 648.417 183.59C649.398 182.709 650.263 181.707 650.99 180.608C654.045 176.02 654.234 170.777 651.412 168.898C649.344 167.521 646.233 168.332 643.516 170.669L641.115 172.693C641.095 172.71 641.07 172.72 641.043 172.722C641.017 172.725 640.99 172.718 640.968 172.705C640.945 172.691 640.927 172.67 640.916 172.646C640.906 172.622 640.903 172.595 640.909 172.569L641.92 167.921Z" fill="#FFE76E"/>
<path d="M675.426 16.0099C673.445 13.2739 670.823 11.8327 668.62 12.583C665.487 13.65 664.388 18.7448 666.164 23.9626C666.73 25.6646 667.592 27.2528 668.712 28.6535C674.374 35.1231 680.267 39.9078 684.658 41.291C684.778 41.3472 684.914 41.3571 685.041 41.3188C685.168 41.2805 685.277 41.1968 685.346 41.0836C688.792 37.7785 690.634 28.7296 691.186 22.283C691.239 20.9659 691.124 19.6474 690.843 18.3596C689.686 12.9703 686.061 9.17828 682.746 9.8899C680.317 10.4114 678.728 13.2065 678.508 16.7836L678.284 19.9154C678.282 19.9419 678.272 19.9671 678.255 19.9876C678.238 20.008 678.215 20.0227 678.189 20.0294C678.164 20.0362 678.137 20.0347 678.112 20.0252C678.087 20.0157 678.066 19.9987 678.051 19.9766L675.426 16.0099Z" fill="#FFE76E"/>
<path d="M492.473 124.864C491.48 121.635 489.462 119.426 487.135 119.426C483.825 119.426 481.142 123.894 481.142 129.406C481.128 131.199 481.433 132.981 482.042 134.668C485.316 142.617 489.351 149.046 493.062 151.771C493.157 151.863 493.284 151.916 493.416 151.921C493.549 151.926 493.678 151.881 493.78 151.797C498.107 149.779 502.768 141.807 505.369 135.882C505.844 134.653 506.16 133.367 506.309 132.058C506.951 126.583 504.742 121.825 501.375 121.43C498.907 121.141 496.502 123.274 495.141 126.59L493.919 129.482C493.909 129.506 493.891 129.527 493.869 129.541C493.846 129.555 493.819 129.561 493.793 129.559C493.766 129.557 493.741 129.547 493.721 129.53C493.7 129.513 493.686 129.49 493.679 129.465L492.473 124.864Z" fill="#FFE76E"/>
<path d="M454.164 210.92C455.547 207.838 455.487 204.847 453.737 203.312C451.249 201.13 446.285 202.72 442.651 206.864C441.458 208.203 440.512 209.743 439.858 211.413C437.077 219.548 435.873 227.043 436.865 231.538C436.959 231.94 437.13 231.97 437.389 232.031C441.973 233.367 450.733 230.446 456.595 227.707C457.763 227.096 458.848 226.338 459.823 225.452C463.916 221.76 465.392 216.726 463.121 214.208C461.457 212.363 458.242 212.382 455.032 213.977L452.207 215.346C452.183 215.358 452.156 215.361 452.13 215.357C452.104 215.352 452.08 215.34 452.061 215.321C452.042 215.302 452.03 215.278 452.026 215.251C452.021 215.225 452.026 215.198 452.038 215.175L454.164 210.92Z" fill="#FFE76E"/>
<path d="M337.511 32.1429C334.398 30.8337 331.409 30.9641 329.916 32.7497C327.793 35.2889 329.5 40.2136 333.728 43.7492C335.095 44.91 336.657 45.819 338.342 46.4342C346.541 49.0216 354.061 50.0493 358.532 48.9505C358.931 48.8479 358.958 48.6761 359.012 48.416C360.24 43.8017 357.113 35.1127 354.237 29.3172C353.598 28.1641 352.815 27.0973 351.906 26.1426C348.118 22.1384 343.05 20.7811 340.587 23.1111C338.782 24.8185 338.877 28.0321 340.547 31.2031L341.982 33.9955C341.994 34.0191 341.999 34.046 341.995 34.0723C341.991 34.0986 341.979 34.123 341.961 34.1421C341.942 34.1612 341.918 34.1741 341.892 34.1789C341.866 34.1837 341.839 34.1802 341.815 34.1688L337.511 32.1429Z" fill="#FFE76E"/>
<path d="M701.186 402.107C702.85 399.168 703.071 396.184 701.472 394.492C699.199 392.087 694.108 393.205 690.102 396.991C688.789 398.213 687.704 399.658 686.895 401.259C683.366 409.098 681.465 416.447 682.033 421.015C682.088 421.424 682.256 421.47 682.508 421.555C686.946 423.314 695.942 421.227 702.034 419.048C703.254 418.549 704.405 417.896 705.46 417.105C709.88 413.812 711.821 408.938 709.795 406.219C708.311 404.227 705.108 403.944 701.764 405.232L698.822 406.33C698.798 406.34 698.77 406.341 698.745 406.334C698.719 406.327 698.696 406.312 698.679 406.292C698.663 406.271 698.653 406.246 698.651 406.219C698.649 406.193 698.656 406.166 698.67 406.144L701.186 402.107Z" fill="#FFE76E"/>
<path d="M612.65 422.748C612.037 419.426 610.288 416.999 607.976 416.73C604.688 416.348 601.507 420.477 600.871 425.952C600.65 427.732 600.747 429.536 601.157 431.282C603.492 439.557 606.758 446.409 610.129 449.543C610.214 449.646 610.333 449.713 610.464 449.733C610.595 449.753 610.729 449.724 610.84 449.652C615.371 448.147 620.921 440.766 624.188 435.181C624.802 434.015 625.264 432.775 625.564 431.491C626.834 426.127 625.188 421.146 621.889 420.365C619.471 419.792 616.836 421.634 615.101 424.77L613.554 427.502C613.541 427.525 613.521 427.544 613.497 427.555C613.473 427.566 613.446 427.57 613.42 427.565C613.394 427.56 613.37 427.547 613.351 427.527C613.333 427.508 613.321 427.484 613.317 427.457L612.65 422.748Z" fill="#FFE76E"/>
<path d="M424.108 434.892C423.116 431.664 421.098 429.454 418.771 429.454C415.461 429.454 412.778 433.922 412.778 439.434C412.764 441.228 413.069 443.009 413.677 444.696C416.951 452.646 420.987 459.075 424.698 461.799C424.793 461.891 424.919 461.945 425.052 461.949C425.184 461.954 425.314 461.91 425.416 461.825C429.743 459.807 434.404 451.835 437.004 445.911C437.48 444.681 437.796 443.396 437.945 442.086C438.587 436.612 436.378 431.853 433.01 431.458C430.543 431.169 428.138 433.303 426.777 436.618L425.555 439.51C425.545 439.535 425.527 439.555 425.504 439.569C425.482 439.583 425.455 439.59 425.429 439.588C425.402 439.586 425.377 439.576 425.357 439.559C425.336 439.542 425.321 439.519 425.315 439.493L424.108 434.892Z" fill="#FFE76E"/>
<path d="M313.27 423.202C311.664 420.231 309.253 418.46 306.97 418.916C303.725 419.564 301.969 424.471 303.049 429.877C303.387 431.638 304.035 433.325 304.962 434.86C309.73 442.014 314.947 447.528 319.119 449.473C319.231 449.544 319.365 449.572 319.496 449.551C319.627 449.529 319.745 449.461 319.828 449.357C323.677 446.531 326.685 437.8 328.075 431.481C328.3 430.182 328.358 428.86 328.248 427.546C327.805 422.052 324.707 417.819 321.327 418.091C318.85 418.291 316.91 420.854 316.225 424.372L315.593 427.448C315.588 427.474 315.575 427.498 315.555 427.516C315.536 427.534 315.511 427.545 315.485 427.549C315.458 427.552 315.432 427.547 315.408 427.534C315.385 427.522 315.366 427.502 315.354 427.478L313.27 423.202Z" fill="#FFE76E"/>
<path d="M224.876 366.668C222.045 364.826 219.08 364.423 217.293 365.915C214.753 368.037 215.557 373.186 219.09 377.417C220.229 378.802 221.605 379.975 223.153 380.879C230.762 384.883 237.98 387.231 242.575 386.944C242.986 386.914 243.042 386.75 243.142 386.503C245.171 382.181 243.638 373.075 241.837 366.86C241.414 365.612 240.833 364.423 240.108 363.322C237.092 358.708 232.346 356.472 229.508 358.327C227.429 359.686 226.95 362.865 228.03 366.283L228.947 369.286C228.954 369.311 228.954 369.338 228.945 369.364C228.937 369.389 228.921 369.411 228.899 369.426C228.878 369.442 228.852 369.45 228.825 369.45C228.799 369.45 228.773 369.442 228.751 369.427L224.876 366.668Z" fill="#FFE76E"/>
<path d="M194.982 438.388C194.59 435.033 193.006 432.495 190.717 432.074C187.462 431.475 184.014 435.384 183.017 440.805C182.679 442.566 182.656 444.374 182.949 446.143C184.731 454.554 187.536 461.607 190.693 464.958C190.77 465.066 190.884 465.141 191.014 465.17C191.143 465.198 191.279 465.178 191.394 465.113C196.015 463.912 202.042 456.915 205.672 451.558C206.361 450.435 206.905 449.228 207.289 447.967C208.911 442.7 207.599 437.62 204.359 436.622C201.984 435.891 199.233 437.554 197.294 440.568L195.569 443.192C195.555 443.214 195.534 443.231 195.509 443.241C195.484 443.25 195.457 443.252 195.431 443.245C195.405 443.239 195.382 443.224 195.365 443.204C195.348 443.183 195.338 443.158 195.336 443.132L194.982 438.388Z" fill="#FFE76E"/>
<path d="M50.5034 447.285C52.3867 444.481 52.8333 441.522 51.368 439.714C49.2842 437.143 44.1233 437.871 39.8407 441.341C38.4389 442.46 37.2465 443.818 36.3189 445.353C32.2038 452.901 29.7497 460.084 29.9686 464.683C29.9925 465.094 30.1561 465.153 30.4009 465.257C34.6931 467.349 43.821 465.951 50.0614 464.241C51.3158 463.836 52.5133 463.273 53.6248 462.564C58.2826 459.617 60.5886 454.905 58.7755 452.04C57.4469 449.94 54.2751 449.415 50.8422 450.444L47.8259 451.316C47.8004 451.324 47.7732 451.323 47.7481 451.314C47.723 451.305 47.7014 451.289 47.6862 451.267C47.6709 451.245 47.6629 451.219 47.6632 451.193C47.6636 451.166 47.6722 451.14 47.6879 451.119L50.5034 447.285Z" fill="#FFE76E"/>
<path d="M28.2417 368.695C28.8212 365.368 28.0251 362.483 25.9507 361.428C23.0009 359.927 18.583 362.693 16.0832 367.605C15.2579 369.197 14.7214 370.923 14.4987 372.703C13.8115 381.272 14.4928 388.833 16.564 392.944C16.6075 393.069 16.6957 393.174 16.8117 393.238C16.9276 393.302 17.0632 393.322 17.1924 393.292C21.9644 393.456 29.7336 388.465 34.7383 384.364C35.7193 383.484 36.5839 382.482 37.3109 381.382C40.366 376.794 40.555 371.552 37.7329 369.672C35.6649 368.295 32.5539 369.106 29.837 371.444L27.4366 373.467C27.4163 373.485 27.3911 373.495 27.3646 373.497C27.3381 373.499 27.3116 373.493 27.2889 373.479C27.2661 373.465 27.2482 373.445 27.2377 373.421C27.2272 373.396 27.2245 373.369 27.2302 373.343L28.2417 368.695Z" fill="#FFE76E"/>
<path d="M299.802 311.147C300.115 307.784 299.093 304.972 296.941 304.085C293.881 302.823 289.697 305.93 287.595 311.026C286.898 312.678 286.501 314.441 286.42 316.233C286.415 324.83 287.694 332.312 290.085 336.246C290.139 336.368 290.235 336.465 290.355 336.52C290.476 336.575 290.613 336.583 290.739 336.543C295.509 336.328 302.858 330.736 307.521 326.251C308.429 325.296 309.212 324.228 309.849 323.074C312.53 318.258 312.303 313.017 309.34 311.368C307.17 310.159 304.133 311.215 301.61 313.76L299.378 315.968C299.359 315.987 299.335 315.999 299.308 316.003C299.282 316.008 299.255 316.004 299.231 315.992C299.208 315.98 299.188 315.961 299.176 315.937C299.163 315.914 299.159 315.887 299.162 315.861L299.802 311.147Z" fill="#FFE76E"/>
<path d="M116.891 227.168C118.273 224.086 118.213 221.095 116.464 219.56C113.975 217.378 109.012 218.968 105.377 223.112C104.185 224.451 103.239 225.992 102.584 227.661C99.8039 235.797 98.5991 243.291 99.592 247.786C99.6852 248.188 99.8564 248.218 100.115 248.279C104.699 249.615 113.459 246.695 119.321 243.955C120.489 243.344 121.574 242.586 122.55 241.7C126.642 238.008 128.119 232.974 125.848 230.456C124.183 228.612 120.969 228.63 117.759 230.225L114.933 231.594C114.91 231.606 114.883 231.61 114.856 231.605C114.83 231.601 114.806 231.588 114.787 231.569C114.769 231.55 114.756 231.526 114.752 231.5C114.748 231.473 114.752 231.447 114.764 231.423L116.891 227.168Z" fill="#FFE76E"/>
<path d="M23.5259 189.327C20.4443 187.944 17.4527 188.004 15.9181 189.754C13.7357 192.242 15.326 197.206 19.4701 200.841C20.8093 202.033 22.3495 202.979 24.0191 203.634C32.1545 206.414 39.649 207.619 44.1441 206.626C44.5457 206.533 44.5761 206.361 44.6367 206.103C45.9731 201.519 43.0526 192.758 40.3132 186.897C39.7021 185.729 38.9442 184.644 38.0581 183.668C34.3657 179.575 29.3317 178.099 26.8143 180.37C24.9696 182.034 24.9881 185.249 26.5829 188.459L27.9521 191.284C27.9636 191.308 27.9675 191.335 27.963 191.361C27.9585 191.388 27.9459 191.412 27.927 191.43C27.9081 191.449 27.8838 191.461 27.8575 191.466C27.8313 191.47 27.8044 191.466 27.7806 191.454L23.5259 189.327Z" fill="#FFE76E"/>
<path d="M406.19 365.061C405.158 364.929 404.11 365.091 403.165 365.526C402.31 365.904 401.514 366.403 400.802 367.007C400.51 367.251 400.239 367.518 399.989 367.805C398.281 369.717 396.291 371.357 394.087 372.667C393.569 372.993 393.07 373.346 392.591 373.726C392.014 374.138 391.495 374.624 391.046 375.172C390.614 375.731 390.262 376.347 389.999 377.002C389.81 377.467 389.669 377.951 389.578 378.445C389.372 379.563 389.619 380.717 390.264 381.653C390.909 382.59 391.899 383.231 393.017 383.437C394.289 383.649 395.594 383.521 396.8 383.066C397.118 382.964 397.425 382.829 397.716 382.664C399.453 381.83 401.406 381.557 403.306 381.883C405.205 382.209 406.956 383.117 408.316 384.481C408.535 384.734 408.779 384.964 409.046 385.166C410.031 385.997 411.219 386.552 412.488 386.776C413.611 386.954 414.759 386.679 415.679 386.011C416.599 385.344 417.216 384.338 417.395 383.215C417.473 382.719 417.501 382.216 417.478 381.714C417.449 381.008 417.322 380.311 417.101 379.64C416.86 378.974 416.532 378.342 416.126 377.761C415.801 377.244 415.447 376.744 415.068 376.265C413.426 374.295 412.096 372.086 411.123 369.714C410.983 369.361 410.816 369.018 410.623 368.691C410.152 367.884 409.568 367.148 408.888 366.507C408.142 365.782 407.207 365.281 406.19 365.061Z" fill="#2C4D66"/>
<path d="M402.293 361.063C405.202 360.831 407.274 357.049 406.921 352.614C406.568 348.18 403.924 344.773 401.014 345.005C398.105 345.236 396.033 349.019 396.386 353.453C396.739 357.887 399.384 361.294 402.293 361.063Z" fill="#2C4D66"/>
<path d="M396.039 360.51C398.361 364.628 397.105 368.927 393.982 369.53C391.503 370.008 388.405 367.778 386.557 364.012C384.588 360.001 385.555 355.285 388.614 354.993C391.176 354.749 394.111 357.092 396.039 360.51Z" fill="#2C4D66"/>
<path d="M419.17 357.36C420.98 353.297 420.287 349.04 417.621 347.853C414.955 346.665 411.327 348.996 409.517 353.059C407.707 357.123 408.4 361.379 411.066 362.567C413.732 363.755 417.36 361.423 419.17 357.36Z" fill="#2C4D66"/>
<path d="M417.147 364.13C413.586 367.239 413.338 371.71 416.082 373.319C418.26 374.597 421.924 373.525 424.921 370.591C428.113 367.465 428.773 362.696 425.987 361.402C423.652 360.318 420.103 361.549 417.147 364.13Z" fill="#2C4D66"/>
<path d="M570.306 25.5187C569.439 26.0944 568.752 26.9019 568.321 27.8492C567.922 28.694 567.646 29.5917 567.502 30.5149C567.442 30.8903 567.411 31.2699 567.41 31.6502C567.368 34.2138 566.935 36.7559 566.124 39.1883C565.946 39.7731 565.799 40.3671 565.684 40.9677C565.518 41.6563 565.443 42.364 565.462 43.0723C565.5 43.7772 565.637 44.4734 565.866 45.1409C566.028 45.6168 566.237 46.0751 566.491 46.5087C567.067 47.4889 568.008 48.2005 569.109 48.4868C570.209 48.7731 571.378 48.6108 572.358 48.0355C573.459 47.3645 574.362 46.4144 574.977 45.2816C575.151 44.996 575.295 44.6932 575.407 44.378C576.176 42.6111 577.475 41.1272 579.125 40.1315C580.775 39.1358 582.693 38.6777 584.615 38.8207C584.946 38.8689 585.281 38.8826 585.615 38.8618C586.904 38.8456 588.165 38.489 589.272 37.828C590.238 37.2286 590.926 36.2701 591.186 35.1633C591.445 34.0565 591.254 32.892 590.655 31.9259C590.39 31.4989 590.082 31.1 589.736 30.7353C589.253 30.2209 588.7 29.7761 588.095 29.4134C587.477 29.0666 586.816 28.803 586.129 28.6294C585.544 28.4509 584.95 28.3039 584.35 28.1892C581.82 27.7728 579.368 26.9717 577.081 25.8138C576.744 25.6376 576.394 25.488 576.033 25.3664C575.149 25.0636 574.227 24.8893 573.293 24.849C572.254 24.7882 571.219 25.0202 570.306 25.5187Z" fill="#2C4D66"/>
<path d="M564.744 25.0425C566.793 22.9648 565.887 18.7483 562.72 15.6246C559.553 12.5009 555.324 11.6529 553.275 13.7306C551.226 15.8083 552.132 20.0248 555.299 23.1485C558.466 26.2722 562.694 27.1202 564.744 25.0425Z" fill="#2C4D66"/>
<path d="M559.651 28.7148C564.1 30.3112 565.961 34.3848 563.993 36.8831C562.43 38.8666 558.628 39.2052 554.767 37.5651C550.655 35.818 548.302 31.6181 550.425 29.3968C552.203 27.5362 555.957 27.3896 559.651 28.7148Z" fill="#2C4D66"/>
<path d="M572.365 20.4432C575.158 19.5983 576.379 15.4618 575.091 11.2041C573.803 6.94632 570.495 4.17965 567.701 5.02453C564.908 5.86941 563.688 10.0059 564.975 14.2637C566.263 18.5214 569.572 21.2881 572.365 20.4432Z" fill="#2C4D66"/>
<path d="M577.987 17.649C577.326 22.3297 580.063 25.8744 583.191 25.2976C585.674 24.8396 587.745 21.6328 588.093 17.4529C588.464 13.0006 585.845 8.96093 582.89 9.80433C580.415 10.5108 578.536 13.7635 577.987 17.649Z" fill="#2C4D66"/>
<path d="M524.566 422.589C523.697 423.16 523.005 423.965 522.57 424.91C522.167 425.752 521.886 426.649 521.738 427.571C521.675 427.946 521.643 428.326 521.64 428.706C521.585 431.269 521.139 433.809 520.316 436.238C520.135 436.822 519.985 437.415 519.868 438.015C519.698 438.703 519.619 439.41 519.635 440.118C519.67 440.823 519.802 441.52 520.029 442.189C520.188 442.666 520.395 443.125 520.647 443.56C521.218 444.543 522.156 445.259 523.255 445.551C524.353 445.843 525.523 445.686 526.506 445.116C527.61 444.45 528.518 443.505 529.139 442.375C529.314 442.09 529.46 441.788 529.573 441.474C530.351 439.711 531.658 438.233 533.312 437.246C534.967 436.258 536.888 435.81 538.809 435.962C539.14 436.012 539.474 436.027 539.808 436.008C541.097 435.998 542.361 435.648 543.471 434.993C544.439 434.398 545.133 433.443 545.398 432.338C545.662 431.232 545.477 430.067 544.883 429.098C544.62 428.669 544.314 428.269 543.97 427.902C543.489 427.386 542.939 426.938 542.335 426.572C541.719 426.222 541.059 425.956 540.373 425.779C539.789 425.597 539.196 425.447 538.596 425.33C536.069 424.9 533.621 424.087 531.34 422.918C531.004 422.74 530.654 422.589 530.294 422.465C529.412 422.158 528.49 421.979 527.557 421.934C526.518 421.868 525.482 422.095 524.566 422.589Z" fill="#2C4D66"/>
<path d="M519.006 422.085C521.066 420.018 520.181 415.797 517.03 412.657C513.879 409.518 509.654 408.649 507.595 410.716C505.535 412.784 506.42 417.005 509.571 420.144C512.723 423.284 516.947 424.153 519.006 422.085Z" fill="#2C4D66"/>
<path d="M513.896 425.732C518.337 427.351 520.177 431.433 518.197 433.922C516.625 435.898 512.82 436.217 508.968 434.558C504.865 432.79 502.532 428.579 504.667 426.368C506.454 424.516 510.209 424.388 513.896 425.732Z" fill="#2C4D66"/>
<path d="M526.65 417.524C529.448 416.693 530.689 412.563 529.422 408.298C528.155 404.034 524.861 401.251 522.063 402.082C519.266 402.913 518.025 407.044 519.291 411.308C520.558 415.572 523.853 418.355 526.65 417.524Z" fill="#2C4D66"/>
<path d="M532.286 414.758C531.602 419.435 534.321 422.993 537.451 422.432C539.937 421.986 542.025 418.79 542.393 414.612C542.786 410.162 540.187 406.109 537.228 406.938C534.75 407.632 532.854 410.875 532.286 414.758Z" fill="#2C4D66"/>
<path d="M232.044 241.874C231.113 242.338 230.33 243.054 229.786 243.94C229.285 244.729 228.899 245.586 228.642 246.484C228.536 246.849 228.458 247.222 228.41 247.599C228.05 250.137 227.305 252.606 226.198 254.919C225.949 255.477 225.73 256.049 225.541 256.63C225.291 257.293 225.129 257.986 225.06 258.691C225.01 259.395 225.059 260.103 225.204 260.794C225.305 261.286 225.456 261.767 225.655 262.229C226.104 263.273 226.95 264.096 228.006 264.516C229.063 264.937 230.242 264.921 231.287 264.471C232.462 263.942 233.477 263.111 234.227 262.064C234.435 261.802 234.616 261.519 234.766 261.22C235.748 259.563 237.221 258.251 238.982 257.468C240.743 256.685 242.703 256.468 244.592 256.848C244.915 256.937 245.245 256.992 245.579 257.013C246.86 257.157 248.156 256.96 249.336 256.441C250.369 255.966 251.171 255.1 251.566 254.034C251.96 252.968 251.916 251.789 251.441 250.756C251.231 250.3 250.975 249.866 250.677 249.461C250.261 248.89 249.768 248.38 249.212 247.945C248.642 247.525 248.019 247.181 247.359 246.924C246.801 246.674 246.229 246.454 245.648 246.266C243.189 245.539 240.856 244.44 238.73 243.007C238.417 242.791 238.088 242.599 237.746 242.433C236.906 242.023 236.012 241.736 235.091 241.58C234.068 241.391 233.012 241.493 232.044 241.874Z" fill="#2C4D66"/>
<path d="M226.583 240.711C228.874 238.904 228.499 234.608 225.744 231.115C222.989 227.623 218.898 226.257 216.607 228.064C214.315 229.872 214.691 234.168 217.446 237.66C220.201 241.153 224.292 242.519 226.583 240.711Z" fill="#2C4D66"/>
<path d="M221.074 243.724C225.291 245.86 226.632 250.133 224.37 252.367C222.573 254.142 218.758 254.006 215.131 251.9C211.267 249.656 209.453 245.196 211.835 243.256C213.831 241.63 217.574 241.95 221.074 243.724Z" fill="#2C4D66"/>
<path d="M234.716 237.093C237.593 236.601 239.317 232.648 238.567 228.264C237.818 223.879 234.878 220.723 232.001 221.215C229.125 221.707 227.401 225.66 228.15 230.045C228.9 234.429 231.84 237.585 234.716 237.093Z" fill="#2C4D66"/>
<path d="M240.641 235.018C239.405 239.58 241.681 243.437 244.856 243.253C247.376 243.106 249.83 240.182 250.694 236.077C251.614 231.705 249.516 227.372 246.479 227.842C243.936 228.236 241.668 231.231 240.641 235.018Z" fill="#2C4D66"/>
<path d="M327.487 201.137C326.699 201.816 326.117 202.703 325.809 203.696C325.518 204.584 325.356 205.509 325.328 206.443C325.315 206.823 325.331 207.204 325.378 207.581C325.656 210.13 325.542 212.706 325.041 215.221C324.937 215.823 324.865 216.431 324.826 217.041C324.747 217.745 324.761 218.457 324.868 219.157C324.994 219.852 325.215 220.525 325.527 221.159C325.746 221.611 326.011 222.04 326.317 222.438C327.011 223.339 328.033 223.928 329.16 224.075C330.288 224.222 331.427 223.915 332.328 223.222C333.337 222.419 334.115 221.364 334.584 220.164C334.721 219.859 334.826 219.54 334.898 219.214C335.441 217.365 336.545 215.73 338.058 214.537C339.571 213.344 341.417 212.65 343.342 212.552C343.676 212.559 344.01 212.531 344.339 212.469C345.616 212.292 346.823 211.781 347.839 210.987C348.723 210.272 349.286 209.236 349.406 208.105C349.525 206.975 349.191 205.843 348.476 204.959C348.16 204.568 347.805 204.211 347.416 203.892C346.872 203.442 346.269 203.069 345.622 202.785C344.966 202.518 344.278 202.339 343.574 202.252C342.972 202.148 342.364 202.076 341.754 202.037C339.192 201.939 336.66 201.449 334.246 200.585C333.89 200.453 333.524 200.348 333.151 200.272C332.236 200.082 331.299 200.024 330.368 200.1C329.329 200.169 328.332 200.528 327.487 201.137Z" fill="#2C4D66"/>
<path d="M321.909 201.357C323.683 199.04 322.259 194.969 318.727 192.265C315.196 189.56 310.895 189.245 309.12 191.562C307.346 193.879 308.77 197.949 312.301 200.654C315.833 203.359 320.134 203.674 321.909 201.357Z" fill="#2C4D66"/>
<path d="M317.313 205.635C321.927 206.665 324.281 210.475 322.639 213.199C321.336 215.362 317.605 216.171 313.57 215.025C309.273 213.803 306.414 209.929 308.244 207.461C309.777 205.393 313.483 204.78 317.313 205.635Z" fill="#2C4D66"/>
<path d="M328.897 195.844C331.564 194.658 332.259 190.401 330.451 186.337C328.643 182.273 325.016 179.94 322.349 181.126C319.683 182.313 318.987 186.569 320.795 190.633C322.604 194.697 326.231 197.03 328.897 195.844Z" fill="#2C4D66"/>
<path d="M334.128 192.371C334.055 197.098 337.212 200.274 340.244 199.312C342.651 198.548 344.307 195.108 344.131 190.918C343.944 186.454 340.842 182.772 338.016 183.977C335.648 184.986 334.189 188.448 334.128 192.371Z" fill="#2C4D66"/>
<path d="M504.224 319.204C503.279 318.768 502.231 318.607 501.199 318.738C500.27 318.842 499.361 319.079 498.5 319.441C498.149 319.587 497.809 319.76 497.485 319.959C495.282 321.269 492.89 322.235 490.395 322.823C489.803 322.978 489.221 323.165 488.649 323.383C487.976 323.603 487.334 323.911 486.742 324.299C486.162 324.702 485.641 325.183 485.194 325.729C484.873 326.117 484.593 326.535 484.358 326.979C483.826 327.984 483.715 329.159 484.049 330.245C484.383 331.332 485.135 332.242 486.139 332.774C487.288 333.358 488.571 333.628 489.858 333.557C490.192 333.555 490.526 333.518 490.853 333.448C492.76 333.174 494.705 333.501 496.419 334.382C498.133 335.263 499.53 336.656 500.418 338.366C500.55 338.673 500.715 338.965 500.908 339.238C501.598 340.327 502.564 341.213 503.708 341.808C504.725 342.315 505.902 342.398 506.98 342.037C508.059 341.677 508.949 340.903 509.457 339.886C509.681 339.436 509.859 338.964 509.988 338.479C510.172 337.797 510.26 337.093 510.251 336.387C510.221 335.679 510.099 334.978 509.886 334.303C509.731 333.711 509.544 333.129 509.326 332.557C508.352 330.186 507.746 327.679 507.531 325.124C507.504 324.745 507.447 324.368 507.361 323.998C507.155 323.086 506.818 322.209 506.363 321.394C505.869 320.478 505.128 319.719 504.224 319.204Z" fill="#2C4D66"/>
<path d="M508.661 307.552C509.656 303.216 508.157 299.172 505.313 298.519C502.469 297.866 499.356 300.852 498.361 305.187C497.365 309.523 498.864 313.567 501.709 314.22C504.553 314.873 507.666 311.887 508.661 307.552Z" fill="#2C4D66"/>
<path d="M495.909 311.814C496.886 316.439 494.397 320.162 491.237 319.799C488.729 319.511 486.444 316.452 485.812 312.306C485.14 307.889 487.478 303.68 490.484 304.321C493.001 304.857 495.097 307.975 495.909 311.814Z" fill="#2C4D66"/>
<path d="M518.918 315.758C521.865 312.427 522.482 308.158 520.297 306.225C518.111 304.291 513.95 305.425 511.002 308.756C508.055 312.088 507.438 316.357 509.624 318.29C511.81 320.224 515.971 319.09 518.918 315.758Z" fill="#2C4D66"/>
<path d="M514.955 321.608C510.624 323.503 509.045 327.694 511.178 330.052C512.872 331.925 516.689 332.004 520.428 330.105C524.412 328.083 526.475 323.733 524.205 321.661C522.304 319.925 518.549 320.034 514.955 321.608Z" fill="#2C4D66"/>
<path d="M563.451 231.156C562.589 231.737 561.906 232.549 561.482 233.5C561.089 234.347 560.819 235.246 560.681 236.171C560.623 236.546 560.595 236.926 560.596 237.306C560.572 239.87 560.155 242.415 559.36 244.853C559.186 245.439 559.043 246.034 558.933 246.635C558.771 247.325 558.701 248.033 558.724 248.741C558.768 249.446 558.908 250.141 559.142 250.807C559.307 251.282 559.52 251.739 559.777 252.171C560.359 253.147 561.305 253.852 562.407 254.131C563.509 254.41 564.677 254.24 565.653 253.658C566.749 252.98 567.647 252.024 568.254 250.887C568.426 250.6 568.568 250.297 568.678 249.981C569.435 248.209 570.724 246.716 572.367 245.709C574.011 244.703 575.926 244.232 577.849 244.362C578.18 244.408 578.515 244.42 578.849 244.396C580.137 244.372 581.397 244.007 582.499 243.338C583.461 242.733 584.143 241.769 584.395 240.661C584.647 239.552 584.448 238.389 583.843 237.427C583.575 237.002 583.264 236.605 582.916 236.243C582.429 235.732 581.873 235.29 581.265 234.932C580.645 234.589 579.982 234.33 579.294 234.161C578.708 233.986 578.114 233.843 577.512 233.733C574.98 233.333 572.523 232.548 570.228 231.406C569.89 231.232 569.539 231.084 569.177 230.965C568.291 230.668 567.367 230.5 566.434 230.466C565.395 230.412 564.361 230.651 563.451 231.156Z" fill="#2C4D66"/>
<path d="M557.885 230.717C559.921 228.625 558.987 224.415 555.799 221.313C552.611 218.21 548.377 217.39 546.342 219.482C544.306 221.573 545.24 225.783 548.428 228.886C551.616 231.988 555.85 232.808 557.885 230.717Z" fill="#2C4D66"/>
<path d="M552.817 234.423C557.277 235.99 559.165 240.051 557.214 242.562C555.664 244.556 551.864 244.92 547.993 243.305C543.869 241.586 541.488 237.402 543.596 235.166C545.362 233.294 549.115 233.122 552.817 234.423Z" fill="#2C4D66"/>
<path d="M565.476 226.067C568.263 225.203 569.456 221.059 568.14 216.81C566.824 212.56 563.497 209.816 560.71 210.679C557.922 211.543 556.729 215.687 558.045 219.937C559.361 224.186 562.688 226.93 565.476 226.067Z" fill="#2C4D66"/>
<path d="M571.08 223.235C570.45 227.92 573.21 231.446 576.334 230.849C578.814 230.374 580.864 227.154 581.184 222.972C581.525 218.517 578.879 214.495 575.93 215.358C573.46 216.081 571.602 219.346 571.08 223.235Z" fill="#2C4D66"/>
<path d="M178.121 158.709C177.333 159.388 176.751 160.275 176.442 161.268C176.151 162.156 175.989 163.081 175.962 164.015C175.948 164.395 175.965 164.776 176.011 165.153C176.289 167.702 176.176 170.278 175.675 172.793C175.57 173.395 175.499 174.003 175.46 174.613C175.38 175.317 175.394 176.029 175.501 176.729C175.627 177.424 175.849 178.097 176.16 178.731C176.38 179.183 176.645 179.612 176.951 180.01C177.644 180.911 178.667 181.5 179.794 181.647C180.921 181.794 182.061 181.487 182.962 180.794C183.971 179.992 184.749 178.936 185.218 177.736C185.355 177.431 185.46 177.112 185.531 176.786C186.074 174.937 187.179 173.303 188.692 172.109C190.205 170.916 192.051 170.222 193.976 170.125C194.31 170.131 194.644 170.103 194.973 170.041C196.25 169.864 197.457 169.353 198.473 168.559C199.356 167.844 199.92 166.808 200.039 165.677C200.159 164.547 199.825 163.415 199.11 162.531C198.794 162.14 198.438 161.783 198.05 161.464C197.506 161.014 196.902 160.642 196.256 160.357C195.6 160.09 194.911 159.911 194.208 159.824C193.606 159.72 192.998 159.648 192.388 159.609C189.826 159.511 187.294 159.022 184.88 158.158C184.524 158.025 184.157 157.92 183.785 157.844C182.87 157.654 181.933 157.596 181.001 157.672C179.963 157.741 178.965 158.1 178.121 158.709Z" fill="#2C4D66"/>
<path d="M172.542 158.929C174.317 156.612 172.893 152.541 169.361 149.837C165.83 147.132 161.529 146.817 159.754 149.134C157.98 151.451 159.404 155.522 162.935 158.226C166.467 160.931 170.768 161.246 172.542 158.929Z" fill="#2C4D66"/>
<path d="M167.947 163.207C172.561 164.237 174.914 168.047 173.273 170.771C171.97 172.934 168.239 173.743 164.204 172.597C159.907 171.376 157.048 167.502 158.878 165.033C160.411 162.965 164.117 162.352 167.947 163.207Z" fill="#2C4D66"/>
<path d="M179.531 153.416C182.197 152.23 182.893 147.974 181.085 143.909C179.277 139.845 175.649 137.512 172.983 138.699C170.317 139.885 169.621 144.141 171.429 148.205C173.237 152.269 176.865 154.602 179.531 153.416Z" fill="#2C4D66"/>
<path d="M184.762 149.943C184.689 154.67 187.846 157.846 190.878 156.884C193.284 156.12 194.941 152.681 194.765 148.49C194.578 144.026 191.476 140.344 188.649 141.549C186.282 142.558 184.822 146.02 184.762 149.943Z" fill="#2C4D66"/>
<path d="M156.769 312.324C155.917 311.728 154.914 311.383 153.874 311.329C152.942 311.266 152.006 311.337 151.094 311.541C150.722 311.622 150.358 311.732 150.003 311.87C147.602 312.768 145.077 313.293 142.517 313.428C141.907 313.476 141.301 313.556 140.7 313.669C139.998 313.766 139.312 313.955 138.659 314.231C138.017 314.525 137.419 314.906 136.882 315.364C136.498 315.688 136.148 316.05 135.837 316.446C135.135 317.34 134.817 318.476 134.952 319.605C135.088 320.733 135.666 321.762 136.56 322.464C137.587 323.243 138.802 323.737 140.081 323.896C140.41 323.953 140.745 323.976 141.079 323.965C143.005 324.035 144.861 324.702 146.391 325.874C147.921 327.046 149.048 328.664 149.618 330.505C149.694 330.831 149.803 331.148 149.945 331.451C150.431 332.644 151.224 333.688 152.244 334.477C153.155 335.157 154.298 335.447 155.423 335.284C156.549 335.121 157.563 334.518 158.243 333.607C158.544 333.204 158.802 332.772 159.015 332.317C159.317 331.679 159.53 331.002 159.646 330.305C159.743 329.604 159.747 328.892 159.657 328.189C159.61 327.58 159.529 326.973 159.416 326.372C158.879 323.865 158.729 321.291 158.971 318.738C159.012 318.36 159.023 317.979 159.004 317.6C158.963 316.666 158.788 315.743 158.484 314.86C158.161 313.871 157.567 312.992 156.769 312.324Z" fill="#2C4D66"/>
<path d="M163.206 301.647C164.956 297.557 164.2 293.311 161.517 292.163C158.834 291.015 155.24 293.399 153.49 297.489C151.74 301.578 152.496 305.824 155.179 306.972C157.862 308.121 161.456 305.736 163.206 301.647Z" fill="#2C4D66"/>
<path d="M149.899 303.575C150.04 308.3 146.928 311.521 143.883 310.602C141.466 309.872 139.761 306.457 139.877 302.264C140 297.798 143.049 294.072 145.893 295.237C148.275 296.212 149.783 299.652 149.899 303.575Z" fill="#2C4D66"/>
<path d="M171.842 311.546C175.335 308.791 176.701 304.7 174.893 302.409C173.086 300.117 168.79 300.493 165.297 303.248C161.805 306.003 160.439 310.094 162.246 312.385C164.054 314.676 168.35 314.301 171.842 311.546Z" fill="#2C4D66"/>
<path d="M166.901 316.597C162.303 317.693 160.004 321.536 161.684 324.236C163.018 326.38 166.76 327.136 170.778 325.933C175.057 324.65 177.86 320.736 175.995 318.294C174.433 316.248 170.718 315.688 166.901 316.597Z" fill="#2C4D66"/>
<path d="M40.0092 295.645C39.1486 296.229 38.4696 297.044 38.0493 297.996C37.659 298.845 37.3926 299.746 37.2583 300.67C37.202 301.046 37.1752 301.426 37.1781 301.806C37.1636 304.37 36.757 306.917 35.9722 309.358C35.8 309.944 35.6596 310.54 35.5514 311.142C35.3922 311.832 35.3249 312.541 35.3513 313.249C35.3974 313.953 35.5409 314.648 35.7776 315.313C35.9442 315.787 36.1585 316.243 36.4173 316.674C37.0033 317.648 37.9522 318.349 39.0553 318.624C40.1584 318.899 41.3255 318.724 42.2998 318.138C43.3931 317.456 44.2866 316.496 44.8895 315.357C45.0605 315.069 45.2012 314.765 45.3094 314.449C45.9698 312.62 47.2762 311.096 48.9825 310.163C50.5796 309.054 52.5271 308.567 54.4583 308.794C54.7897 308.839 55.1249 308.849 55.4584 308.825C56.747 308.795 58.0048 308.425 59.1043 307.752C60.0639 307.142 60.7421 306.177 60.9897 305.067C61.2373 303.958 61.0342 302.795 60.4249 301.836C60.1552 301.411 59.8432 301.016 59.4935 300.655C59.0045 300.146 58.4474 299.707 57.8379 299.35C57.2164 299.01 56.5526 298.754 55.8639 298.587C55.2773 298.415 54.6818 298.274 54.08 298.166C51.5459 297.776 49.0863 297.001 46.7866 295.868C46.4477 295.695 46.0959 295.549 45.7344 295.432C44.8473 295.138 43.9226 294.974 42.9887 294.943C41.9494 294.893 40.9171 295.136 40.0092 295.645Z" fill="#2C4D66"/>
<path d="M34.4419 295.227C36.4691 293.128 35.5184 288.921 32.3185 285.831C29.1186 282.742 24.8813 281.938 22.8541 284.038C20.8269 286.137 21.7776 290.344 24.9775 293.434C28.1774 296.524 32.4147 297.327 34.4419 295.227Z" fill="#2C4D66"/>
<path d="M29.389 298.953C33.8552 300.503 35.759 304.556 33.8177 307.075C32.2763 309.075 28.4774 309.454 24.5998 307.855C20.4696 306.152 18.0716 301.977 20.1712 299.733C21.9298 297.854 25.6818 297.668 29.389 298.953Z" fill="#2C4D66"/>
<path d="M42.0137 290.547C44.7979 289.673 45.9744 285.524 44.6414 281.28C43.3085 277.036 39.9709 274.305 37.1867 275.179C34.4025 276.054 33.226 280.203 34.559 284.447C35.8919 288.691 39.2295 291.422 42.0137 290.547Z" fill="#2C4D66"/>
<path d="M47.6057 287.694C46.9943 292.381 49.7686 295.897 52.8899 295.287C55.3681 294.802 57.4057 291.574 57.7093 287.391C58.0327 282.935 55.3708 278.923 52.4251 279.798C49.9577 280.53 48.1132 283.803 47.6057 287.694Z" fill="#2C4D66"/>
<path d="M264.708 120.93C263.804 120.416 262.773 120.166 261.733 120.21C260.799 120.234 259.874 120.393 258.985 120.681C258.622 120.796 258.27 120.94 257.93 121.111C255.623 122.23 253.159 122.989 250.622 123.363C250.02 123.468 249.423 123.605 248.836 123.773C248.146 123.935 247.481 124.188 246.857 124.524C246.245 124.877 245.685 125.312 245.193 125.818C244.841 126.177 244.527 126.571 244.254 126.993C243.639 127.949 243.429 129.11 243.669 130.221C243.91 131.332 244.582 132.302 245.538 132.918C246.633 133.597 247.889 133.975 249.177 134.013C249.511 134.039 249.846 134.031 250.178 133.989C252.101 133.878 254.012 134.368 255.645 135.392C257.277 136.415 258.552 137.921 259.291 139.7C259.397 140.017 259.536 140.323 259.705 140.611C260.301 141.754 261.188 142.719 262.277 143.409C263.248 144 264.414 144.182 265.519 143.915C266.624 143.647 267.577 142.951 268.169 141.981C268.43 141.552 268.648 141.097 268.817 140.624C269.058 139.96 269.206 139.267 269.256 138.562C269.287 137.855 269.224 137.146 269.069 136.454C268.965 135.852 268.828 135.256 268.66 134.668C267.89 132.222 267.499 129.673 267.501 127.109C267.506 126.729 267.482 126.349 267.428 125.972C267.299 125.047 267.039 124.145 266.654 123.293C266.239 122.339 265.565 121.52 264.708 120.93Z" fill="#2C4D66"/>
<path d="M270.117 109.696C271.476 105.461 270.325 101.304 267.547 100.412C264.768 99.5206 261.413 102.231 260.054 106.467C258.695 110.702 259.845 114.858 262.624 115.75C265.403 116.642 268.757 113.932 270.117 109.696Z" fill="#2C4D66"/>
<path d="M257.05 112.862C257.632 117.553 254.836 121.051 251.718 120.422C249.243 119.922 247.226 116.681 246.948 112.495C246.653 108.038 249.339 104.043 252.28 104.936C254.742 105.684 256.566 108.968 257.05 112.862Z" fill="#2C4D66"/>
<path d="M279.643 118.743C282.862 115.673 283.839 111.472 281.825 109.36C279.811 107.248 275.568 108.025 272.349 111.095C269.13 114.165 268.153 118.365 270.167 120.477C272.181 122.589 276.424 121.813 279.643 118.743Z" fill="#2C4D66"/>
<path d="M275.197 124.235C270.721 125.756 268.792 129.798 270.718 132.329C272.247 134.338 276.043 134.741 279.931 133.166C284.071 131.489 286.495 127.329 284.41 125.072C282.663 123.182 278.912 122.972 275.197 124.235Z" fill="#2C4D66"/>
<path d="M384.977 120.004C384.125 119.408 383.122 119.063 382.082 119.009C381.15 118.946 380.214 119.017 379.302 119.221C378.93 119.302 378.566 119.412 378.211 119.55C375.81 120.448 373.285 120.973 370.725 121.108C370.115 121.156 369.509 121.236 368.908 121.349C368.206 121.446 367.52 121.635 366.867 121.911C366.225 122.205 365.627 122.586 365.09 123.044C364.706 123.368 364.356 123.73 364.045 124.126C363.343 125.02 363.025 126.156 363.161 127.285C363.296 128.413 363.874 129.442 364.768 130.144C365.795 130.923 367.01 131.417 368.289 131.576C368.618 131.633 368.953 131.656 369.287 131.645C371.213 131.715 373.069 132.382 374.599 133.554C376.129 134.726 377.256 136.344 377.826 138.185C377.902 138.511 378.011 138.828 378.153 139.131C378.639 140.324 379.432 141.368 380.452 142.157C381.363 142.837 382.506 143.127 383.631 142.964C384.756 142.801 385.771 142.198 386.451 141.287C386.752 140.884 387.01 140.452 387.223 139.997C387.525 139.359 387.738 138.682 387.854 137.985C387.951 137.284 387.955 136.572 387.865 135.869C387.818 135.26 387.737 134.653 387.624 134.052C387.087 131.545 386.937 128.971 387.179 126.418C387.22 126.04 387.231 125.659 387.212 125.28C387.171 124.346 386.996 123.423 386.692 122.54C386.369 121.551 385.775 120.672 384.977 120.004Z" fill="#2C4D66"/>
<path d="M391.414 109.327C393.164 105.237 392.408 100.991 389.725 99.843C387.042 98.6949 383.448 101.079 381.698 105.169C379.948 109.258 380.704 113.504 383.387 114.653C386.07 115.801 389.664 113.416 391.414 109.327Z" fill="#2C4D66"/>
<path d="M378.107 111.255C378.248 115.98 375.136 119.201 372.091 118.282C369.674 117.553 367.969 114.137 368.085 109.944C368.208 105.478 371.257 101.752 374.101 102.917C376.483 103.892 377.991 107.332 378.107 111.255Z" fill="#2C4D66"/>
<path d="M400.05 119.226C403.543 116.471 404.909 112.38 403.101 110.089C401.294 107.797 396.998 108.173 393.505 110.928C390.013 113.683 388.647 117.774 390.454 120.065C392.262 122.356 396.558 121.981 400.05 119.226Z" fill="#2C4D66"/>
<path d="M395.109 124.277C390.511 125.373 388.212 129.216 389.892 131.916C391.226 134.06 394.968 134.817 398.986 133.613C403.265 132.33 406.068 128.416 404.203 125.974C402.641 123.928 398.926 123.368 395.109 124.277Z" fill="#2C4D66"/>
<path d="M626.773 322.73C625.8 322.363 624.743 322.276 623.722 322.479C622.804 322.648 621.914 322.949 621.08 323.371C620.74 323.541 620.414 323.737 620.104 323.959C617.999 325.421 615.682 326.554 613.234 327.316C612.655 327.512 612.087 327.74 611.532 327.997C610.876 328.264 610.258 328.617 609.694 329.046C609.144 329.489 608.658 330.005 608.25 330.582C607.958 330.991 607.709 331.428 607.505 331.888C607.045 332.927 607.017 334.107 607.427 335.168C607.837 336.228 608.651 337.082 609.691 337.542C610.878 338.044 612.177 338.223 613.456 338.061C613.789 338.035 614.119 337.975 614.44 337.882C616.323 337.475 618.287 337.663 620.058 338.421C621.83 339.179 623.322 340.47 624.328 342.113C624.482 342.41 624.666 342.69 624.878 342.949C625.644 343.986 626.67 344.802 627.853 345.314C628.903 345.749 630.083 345.748 631.133 345.312C632.183 344.877 633.017 344.042 633.452 342.991C633.644 342.527 633.788 342.044 633.882 341.55C634.018 340.858 634.056 340.149 633.997 339.446C633.918 338.742 633.746 338.051 633.486 337.392C633.289 336.813 633.062 336.245 632.804 335.691C631.665 333.394 630.885 330.936 630.489 328.403C630.435 328.026 630.352 327.654 630.241 327.291C629.971 326.396 629.573 325.546 629.061 324.764C628.504 323.885 627.711 323.181 626.773 322.73Z" fill="#2C4D66"/>
<path d="M630.377 310.794C631.064 306.4 629.283 302.471 626.4 302.021C623.517 301.57 620.623 304.767 619.935 309.162C619.248 313.557 621.029 317.485 623.912 317.936C626.795 318.387 629.69 315.189 630.377 310.794Z" fill="#2C4D66"/>
<path d="M617.958 315.945C619.259 320.49 617.038 324.379 613.861 324.24C611.338 324.129 608.843 321.24 607.921 317.148C606.939 312.789 608.975 308.427 612.018 308.854C614.566 309.211 616.877 312.173 617.958 315.945Z" fill="#2C4D66"/>
<path d="M641.188 318.257C643.893 314.725 644.207 310.424 641.89 308.65C639.574 306.875 635.503 308.299 632.798 311.831C630.093 315.362 629.779 319.663 632.095 321.438C634.412 323.212 638.483 321.788 641.188 318.257Z" fill="#2C4D66"/>
<path d="M637.647 324.371C633.461 326.567 632.181 330.859 634.475 333.061C636.297 334.81 640.11 334.62 643.707 332.462C647.538 330.163 649.288 325.678 646.878 323.772C644.86 322.175 641.122 322.548 637.647 324.371Z" fill="#2C4D66"/>
<path d="M579.218 107.414C578.21 107.672 577.295 108.209 576.577 108.962C575.922 109.628 575.366 110.385 574.926 111.21C574.746 111.544 574.592 111.893 574.466 112.252C573.583 114.659 572.338 116.917 570.772 118.947C570.411 119.441 570.077 119.953 569.771 120.483C569.388 121.078 569.084 121.722 568.869 122.397C568.674 123.076 568.573 123.778 568.571 124.484C568.567 124.986 568.614 125.488 568.711 125.981C568.932 127.096 569.587 128.078 570.532 128.71C571.477 129.342 572.634 129.573 573.749 129.353C575.009 129.081 576.175 128.481 577.128 127.613C577.386 127.401 577.622 127.162 577.831 126.901C579.139 125.486 580.854 124.512 582.739 124.114C584.625 123.717 586.587 123.915 588.355 124.682C588.652 124.837 588.963 124.96 589.286 125.05C590.508 125.459 591.817 125.537 593.079 125.276C594.189 125.028 595.154 124.349 595.763 123.39C596.372 122.43 596.575 121.267 596.327 120.158C596.217 119.667 596.057 119.189 595.851 118.731C595.563 118.086 595.188 117.485 594.735 116.943C594.266 116.412 593.728 115.946 593.137 115.556C592.643 115.195 592.131 114.861 591.601 114.555C589.349 113.33 587.298 111.767 585.518 109.921C585.258 109.644 584.977 109.387 584.676 109.154C583.941 108.577 583.127 108.109 582.259 107.764C581.298 107.365 580.244 107.243 579.218 107.414Z" fill="#2C4D66"/>
<path d="M574.122 105.134C576.74 103.846 577.272 99.5664 575.308 95.5749C573.345 91.5833 569.631 89.3916 567.012 90.6796C564.393 91.9676 563.862 96.2475 565.825 100.239C567.788 104.231 571.503 106.422 574.122 105.134Z" fill="#2C4D66"/>
<path d="M568.105 106.927C571.781 109.898 572.199 114.357 569.518 116.069C567.39 117.429 563.688 116.497 560.582 113.679C557.273 110.676 556.432 105.936 559.168 104.537C561.459 103.365 565.053 104.461 568.105 106.927Z" fill="#2C4D66"/>
<path d="M588.445 95.4694C588.629 91.025 586.415 87.324 583.499 87.2031C580.583 87.0822 578.07 90.5871 577.886 95.0315C577.701 99.4759 579.915 103.177 582.831 103.298C585.747 103.419 588.26 99.9138 588.445 95.4694Z" fill="#2C4D66"/>
<path d="M589.06 102.508C586.896 106.711 588.315 110.959 591.458 111.443C593.954 111.827 596.965 109.48 598.669 105.647C600.483 101.565 599.338 96.8884 596.271 96.7129C593.701 96.566 590.856 99.0197 589.06 102.508Z" fill="#2C4D66"/>
<path d="M458.223 36.6337C457.184 36.6788 456.178 37.0148 455.32 37.6035C454.541 38.1205 453.841 38.7465 453.241 39.4625C452.995 39.7528 452.773 40.0618 452.575 40.3868C451.215 42.5601 449.53 44.5125 447.579 46.1762C447.125 46.5847 446.692 47.0174 446.284 47.4725C445.785 47.9761 445.355 48.5433 445.006 49.1595C444.675 49.7829 444.431 50.4493 444.283 51.1395C444.175 51.6304 444.118 52.131 444.112 52.6335C444.098 53.7702 444.536 54.8659 445.33 55.6794C446.124 56.493 447.209 56.958 448.345 56.972C449.634 56.9662 450.899 56.6196 452.011 55.9675C452.307 55.8129 452.587 55.628 452.845 55.4158C454.417 54.3005 456.296 53.7014 458.223 53.7014C460.15 53.7014 462.029 54.3005 463.601 55.4158C463.859 55.628 464.139 55.8129 464.436 55.9675C465.547 56.6196 466.812 56.9662 468.101 56.972C469.237 56.958 470.322 56.493 471.116 55.6794C471.91 54.8659 472.348 53.7702 472.335 52.6335C472.328 52.131 472.271 51.6304 472.163 51.1395C472.015 50.4493 471.772 49.7829 471.441 49.1595C471.091 48.5433 470.661 47.9761 470.163 47.4725C469.754 47.0174 469.322 46.5847 468.867 46.1762C466.916 44.5125 465.231 42.5601 463.871 40.3868C463.674 40.0618 463.451 39.7528 463.205 39.4625C462.605 38.7465 461.905 38.1205 461.127 37.6035C460.269 37.0148 459.263 36.6788 458.223 36.6337Z" fill="#2C4D66"/>
<path d="M453.707 33.3517C456.535 32.6318 457.938 28.5536 456.841 24.2428C455.743 19.9321 452.561 17.0211 449.733 17.7411C446.905 18.461 445.502 22.5392 446.599 26.85C447.697 31.1607 450.879 34.0717 453.707 33.3517Z" fill="#2C4D66"/>
<path d="M447.449 33.8645C450.434 37.5304 449.922 41.9794 446.946 43.1016C444.584 43.9925 441.153 42.3174 438.695 38.9186C436.077 35.2981 436.233 30.4862 439.198 29.6815C441.682 29.0075 444.972 30.8215 447.449 33.8645Z" fill="#2C4D66"/>
<path d="M469.716 26.85C470.813 22.5393 469.41 18.4611 466.582 17.7411C463.754 17.0212 460.572 19.9321 459.474 24.2428C458.377 28.5536 459.78 32.6318 462.608 33.3517C465.436 34.0717 468.618 31.1608 469.716 26.85Z" fill="#2C4D66"/>
<path d="M468.866 33.8645C465.881 37.5304 466.393 41.9794 469.369 43.1016C471.732 43.9925 475.162 42.3174 477.62 38.9186C480.238 35.2981 480.083 30.4862 477.117 29.6815C474.633 29.0075 471.343 30.8215 468.866 33.8645Z" fill="#2C4D66"/>
<path d="M118.695 396.848C117.737 397.253 116.911 397.918 116.311 398.769C115.762 399.524 115.323 400.355 115.01 401.235C114.881 401.593 114.78 401.96 114.708 402.333C114.19 404.844 113.29 407.261 112.041 409.5C111.756 410.041 111.502 410.598 111.277 411.166C110.985 411.812 110.78 412.493 110.667 413.193C110.573 413.892 110.577 414.602 110.679 415.3C110.749 415.798 110.869 416.287 111.038 416.761C111.421 417.831 112.214 418.705 113.241 419.192C114.269 419.678 115.448 419.736 116.518 419.353C117.724 418.899 118.789 418.134 119.604 417.135C119.828 416.887 120.026 416.617 120.194 416.328C121.279 414.735 122.832 413.519 124.639 412.848C126.445 412.177 128.415 412.084 130.277 412.582C130.593 412.691 130.919 412.767 131.251 412.809C132.521 413.033 133.827 412.918 135.037 412.474C136.098 412.065 136.952 411.252 137.413 410.213C137.874 409.173 137.904 407.994 137.495 406.933C137.314 406.464 137.086 406.015 136.814 405.592C136.435 404.997 135.975 404.457 135.447 403.988C134.905 403.532 134.304 403.15 133.662 402.851C133.121 402.567 132.564 402.312 131.996 402.087C129.588 401.207 127.328 399.964 125.297 398.4C124.998 398.164 124.682 397.952 124.351 397.765C123.539 397.303 122.664 396.96 121.755 396.747C120.745 396.493 119.685 396.529 118.695 396.848Z" fill="#2C4D66"/>
<path d="M113.318 395.345C115.718 393.685 115.614 389.373 113.084 385.715C110.554 382.056 106.557 380.435 104.157 382.095C101.756 383.754 101.861 388.066 104.391 391.725C106.921 395.384 110.918 397.004 113.318 395.345Z" fill="#2C4D66"/>
<path d="M107.631 398.004C111.705 400.401 112.775 404.75 110.376 406.838C108.471 408.496 104.672 408.121 101.185 405.79C97.4701 403.308 95.9399 398.743 98.4397 396.956C100.534 395.459 104.249 396.014 107.631 398.004Z" fill="#2C4D66"/>
<path d="M121.663 392.245C124.565 391.935 126.534 388.098 126.062 383.675C125.589 379.252 122.854 375.918 119.952 376.228C117.051 376.537 115.081 380.374 115.554 384.797C116.026 389.22 118.761 392.555 121.663 392.245Z" fill="#2C4D66"/>
<path d="M127.707 390.547C126.186 395.022 128.215 399.015 131.395 399.03C133.92 399.043 136.553 396.278 137.673 392.236C138.866 387.931 137.045 383.474 133.985 383.752C131.422 383.985 128.97 386.831 127.707 390.547Z" fill="#2C4D66"/>
<path d="M150.289 37.5432C149.61 36.755 148.723 36.1732 147.729 35.8643C146.841 35.5733 145.916 35.4114 144.982 35.3835C144.602 35.3704 144.222 35.3871 143.844 35.4333C141.296 35.7114 138.719 35.5978 136.205 35.0965C135.602 34.9923 134.995 34.9207 134.385 34.8818C133.68 34.8024 132.969 34.8163 132.269 34.9233C131.574 35.0494 130.9 35.2712 130.266 35.5823C129.814 35.8018 129.386 36.0668 128.987 36.373C128.086 37.0662 127.498 38.0889 127.35 39.2162C127.203 40.3434 127.51 41.4829 128.203 42.3841C129.006 43.3925 130.061 44.1706 131.262 44.6397C131.567 44.7768 131.885 44.8819 132.212 44.9533C134.104 45.4008 135.767 46.5249 136.888 48.1137C138.173 49.5738 138.878 51.4532 138.873 53.3977C138.866 53.732 138.894 54.0661 138.957 54.3947C139.133 55.6715 139.644 56.8789 140.438 57.8945C141.153 58.7783 142.19 59.3419 143.32 59.4614C144.451 59.5809 145.583 59.2465 146.467 58.5318C146.857 58.2155 147.215 57.8604 147.533 57.4718C147.983 56.928 148.356 56.3244 148.64 55.6782C148.908 55.022 149.087 54.3333 149.174 53.6301C149.278 53.0276 149.35 52.42 149.389 51.8098C149.487 49.2478 149.976 46.7158 150.84 44.3018C150.973 43.9455 151.078 43.5794 151.154 43.2067C151.344 42.2919 151.402 41.3546 151.326 40.4233C151.257 39.3851 150.897 38.3873 150.289 37.5432Z" fill="#2C4D66"/>
<path d="M159.161 28.7834C161.866 25.252 162.181 20.9507 159.864 19.1762C157.547 17.4016 153.476 18.8258 150.772 22.3572C148.067 25.8886 147.752 30.1899 150.069 31.9644C152.386 33.739 156.457 32.3148 159.161 28.7834Z" fill="#2C4D66"/>
<path d="M145.791 27.369C144.761 31.9827 140.951 34.3364 138.227 32.6949C136.064 31.3917 135.255 27.6608 136.401 23.6262C137.622 19.3286 141.496 16.4702 143.965 18.3002C146.032 19.8331 146.646 23.5393 145.791 27.369Z" fill="#2C4D66"/>
<path d="M165.088 40.5069C169.152 38.6987 171.485 35.0714 170.299 32.4051C169.113 29.7388 164.857 29.0432 160.792 30.8514C156.728 32.6595 154.395 36.2868 155.582 38.9531C156.768 41.6195 161.024 42.3151 165.088 40.5069Z" fill="#2C4D66"/>
<path d="M159.054 44.1837C154.328 44.1108 151.151 47.268 152.113 50.2993C152.877 52.7061 156.317 54.3622 160.508 54.1868C164.972 53.9999 168.653 50.8979 167.449 48.0711C166.439 45.7034 162.978 44.2442 159.054 44.1837Z" fill="#2C4D66"/>
<path d="M690.317 109.773C689.69 108.943 688.842 108.306 687.87 107.935C687.002 107.588 686.089 107.368 685.159 107.28C684.78 107.243 684.4 107.236 684.02 107.258C681.459 107.373 678.895 107.096 676.417 106.436C675.823 106.294 675.221 106.184 674.614 106.106C673.917 105.982 673.206 105.951 672.5 106.013C671.799 106.095 671.112 106.273 670.46 106.543C669.995 106.734 669.55 106.971 669.133 107.251C668.19 107.886 667.538 108.869 667.319 109.985C667.101 111.1 667.334 112.257 667.969 113.2C668.706 114.258 669.709 115.101 670.878 115.646C671.173 115.802 671.485 115.927 671.806 116.019C673.617 116.679 675.177 117.885 676.272 119.47C677.367 121.056 677.942 122.943 677.917 124.87C677.889 125.203 677.896 125.538 677.937 125.87C678.032 127.156 678.465 128.393 679.193 129.457C679.85 130.384 680.849 131.013 681.97 131.204C683.09 131.395 684.241 131.133 685.169 130.476C685.579 130.185 685.958 129.854 686.301 129.486C686.785 128.972 687.195 128.393 687.52 127.767C687.828 127.129 688.051 126.453 688.182 125.757C688.324 125.162 688.434 124.56 688.512 123.954C688.773 121.403 689.422 118.907 690.438 116.553C690.593 116.206 690.721 115.847 690.82 115.48C691.068 114.579 691.186 113.648 691.169 112.713C691.166 111.673 690.871 110.654 690.317 109.773Z" fill="#2C4D66"/>
<path d="M699.728 101.595C702.652 98.2427 703.239 93.9701 701.04 92.0519C698.841 90.1337 694.688 91.2962 691.764 94.6485C688.84 98.0008 688.253 102.273 690.452 104.192C692.651 106.11 696.804 104.947 699.728 101.595Z" fill="#2C4D66"/>
<path d="M686.475 99.3335C685.154 103.872 681.202 105.979 678.588 104.168C676.512 102.73 675.941 98.955 677.342 95.0014C678.834 90.7901 682.882 88.1838 685.229 90.167C687.195 91.8282 687.571 95.5659 686.475 99.3335Z" fill="#2C4D66"/>
<path d="M704.898 113.671C709.069 112.125 711.628 108.654 710.614 105.917C709.599 103.181 705.396 102.216 701.225 103.762C697.054 105.309 694.495 108.78 695.51 111.517C696.524 114.253 700.727 115.218 704.898 113.671Z" fill="#2C4D66"/>
<path d="M698.643 116.957C693.931 116.584 690.56 119.533 691.328 122.619C691.937 125.07 695.265 126.941 699.458 127.033C703.925 127.13 707.796 124.268 706.774 121.371C705.917 118.943 702.555 117.267 698.643 116.957Z" fill="#2C4D66"/>
<path d="M386.622 278.85C385.582 278.895 384.576 279.231 383.718 279.82C382.94 280.337 382.24 280.963 381.639 281.679C381.394 281.969 381.171 282.278 380.974 282.603C379.614 284.777 377.929 286.729 375.978 288.393C375.523 288.801 375.09 289.234 374.682 289.689C374.184 290.193 373.754 290.76 373.404 291.376C373.073 291.999 372.83 292.666 372.682 293.356C372.574 293.847 372.516 294.348 372.51 294.85C372.496 295.987 372.935 297.082 373.729 297.896C374.523 298.71 375.607 299.175 376.744 299.189C378.033 299.183 379.297 298.836 380.409 298.184C380.706 298.029 380.986 297.845 381.244 297.632C382.815 296.517 384.695 295.918 386.622 295.918C388.549 295.918 390.428 296.517 391.999 297.632C392.258 297.845 392.537 298.029 392.834 298.184C393.946 298.836 395.21 299.183 396.499 299.189C397.636 299.175 398.721 298.71 399.515 297.896C400.309 297.082 400.747 295.987 400.733 294.85C400.727 294.348 400.669 293.847 400.562 293.356C400.413 292.666 400.17 291.999 399.839 291.376C399.489 290.76 399.06 290.193 398.561 289.689C398.153 289.234 397.72 288.801 397.265 288.393C395.314 286.729 393.63 284.777 392.269 282.603C392.072 282.278 391.849 281.969 391.604 281.679C391.003 280.963 390.303 280.337 389.525 279.82C388.667 279.231 387.661 278.895 386.622 278.85Z" fill="#2C4D66"/>
<path d="M382.105 275.568C384.934 274.848 386.337 270.77 385.239 266.459C384.142 262.149 380.96 259.238 378.131 259.958C375.303 260.678 373.9 264.756 374.998 269.067C376.095 273.377 379.277 276.288 382.105 275.568Z" fill="#2C4D66"/>
<path d="M375.848 276.081C378.832 279.747 378.321 284.196 375.345 285.318C372.982 286.209 369.551 284.534 367.094 281.135C364.476 277.515 364.631 272.703 367.597 271.898C370.081 271.224 373.37 273.038 375.848 276.081Z" fill="#2C4D66"/>
<path d="M398.114 269.067C399.212 264.756 397.809 260.678 394.98 259.958C392.152 259.238 388.97 262.149 387.873 266.459C386.775 270.77 388.178 274.848 391.006 275.568C393.835 276.288 397.017 273.377 398.114 269.067Z" fill="#2C4D66"/>
<path d="M397.264 276.081C394.28 279.747 394.792 284.196 397.767 285.318C400.13 286.209 403.561 284.534 406.018 281.135C408.636 277.515 408.481 272.703 405.515 271.898C403.031 271.224 399.742 273.038 397.264 276.081Z" fill="#2C4D66"/>
<path d="M103.909 118.191C103.366 119.078 103.083 120.101 103.093 121.141C103.087 122.075 103.216 123.006 103.475 123.903C103.579 124.269 103.711 124.626 103.87 124.972C104.914 127.314 105.593 129.801 105.884 132.349C105.969 132.954 106.087 133.555 106.236 134.147C106.376 134.842 106.607 135.515 106.923 136.149C107.255 136.772 107.672 137.346 108.162 137.854C108.509 138.218 108.892 138.545 109.306 138.831C110.241 139.477 111.395 139.725 112.513 139.52C113.631 139.315 114.623 138.675 115.269 137.74C115.984 136.667 116.402 135.425 116.482 134.138C116.519 133.806 116.522 133.471 116.49 133.138C116.442 131.211 116.994 129.318 118.07 127.719C119.145 126.12 120.692 124.895 122.494 124.214C122.815 124.118 123.124 123.99 123.418 123.83C124.58 123.271 125.573 122.416 126.297 121.35C126.92 120.399 127.14 119.239 126.908 118.126C126.677 117.013 126.012 116.038 125.062 115.415C124.641 115.14 124.194 114.908 123.726 114.723C123.071 114.461 122.382 114.29 121.68 114.217C120.974 114.163 120.263 114.203 119.567 114.336C118.962 114.42 118.361 114.538 117.768 114.687C115.299 115.377 112.738 115.685 110.176 115.6C109.796 115.582 109.415 115.595 109.037 115.636C108.108 115.735 107.198 115.966 106.335 116.323C105.367 116.706 104.527 117.353 103.909 118.191Z" fill="#2C4D66"/>
<path d="M98.6651 120.106C99.6466 117.357 97.0463 113.917 92.8571 112.421C88.668 110.925 84.4764 111.94 83.4949 114.688C82.5134 117.436 85.1137 120.877 89.3028 122.373C93.492 123.869 97.6836 122.854 98.6651 120.106Z" fill="#2C4D66"/>
<path d="M95.5973 125.584C100.305 125.154 103.71 128.062 102.98 131.158C102.4 133.615 99.0954 135.526 94.9035 135.668C90.4383 135.819 86.5326 133.004 87.5206 130.094C88.3481 127.657 91.6895 125.94 95.5973 125.584Z" fill="#2C4D66"/>
<path d="M103.634 112.721C105.81 110.776 105.172 106.511 102.208 103.194C99.2441 99.8769 95.0773 98.7643 92.9012 100.709C90.725 102.653 91.3636 106.918 94.3275 110.235C97.2913 113.552 101.458 114.665 103.634 112.721Z" fill="#2C4D66"/>
<path d="M107.553 107.815C108.928 112.338 112.905 114.397 115.497 112.555C117.556 111.092 118.081 107.31 116.633 103.374C115.091 99.1809 111.012 96.6232 108.689 98.6345C106.743 100.319 106.411 104.061 107.553 107.815Z" fill="#2C4D66"/>
</svg>
