<svg width="21" height="21" viewBox="0 0 21 21" fill="none" xmlns="http://www.w3.org/2000/svg">
<path d="M1.96875 3.28125C1.96875 2.19394 2.85019 1.3125 3.9375 1.3125H17.0625C18.1498 1.3125 19.0312 2.19394 19.0312 3.28125V17.7188C19.0312 18.8061 18.1498 19.6875 17.0625 19.6875H3.9375C2.85019 19.6875 1.96875 18.8061 1.96875 17.7188V3.28125Z" fill="#116F39"/>
<path d="M3.28125 16.4062C3.28125 16.0438 3.57506 15.75 3.9375 15.75H17.0625C17.4249 15.75 17.7188 16.0438 17.7188 16.4062V17.7188C17.7188 18.0812 17.4249 18.375 17.0625 18.375H3.9375C3.57506 18.375 3.28125 18.0812 3.28125 17.7188V16.4062Z" fill="#3EB972"/>
<path d="M3.28125 3.28125C3.28125 2.91881 3.57506 2.625 3.9375 2.625H17.0625C17.4249 2.625 17.7188 2.91881 17.7188 3.28125V16.4062C17.7188 16.7687 17.4249 17.0625 17.0625 17.0625H3.9375C3.57506 17.0625 3.28125 16.7687 3.28125 16.4062V3.28125Z" fill="url(#paint0_linear_190_245)"/>
<path fill-rule="evenodd" clip-rule="evenodd" d="M14.4375 4.26562C14.9812 4.26562 15.4219 4.70634 15.4219 5.25V6.5625C15.4219 6.75684 15.3644 6.94683 15.2565 7.10853L10.0065 14.9835C9.84296 15.2289 9.57797 15.388 9.2845 15.4171C8.99102 15.4461 8.69998 15.3421 8.49144 15.1336L5.86644 12.5086C5.68184 12.324 5.57812 12.0736 5.57812 11.8125V10.5C5.57812 9.95634 6.01884 9.51562 6.5625 9.51562C7.10616 9.51562 7.54688 9.95634 7.54688 10.5V11.4048L9.0345 12.8924L13.4531 6.26446V5.25C13.4531 4.70634 13.8938 4.26562 14.4375 4.26562Z" fill="#3EB972"/>
<path fill-rule="evenodd" clip-rule="evenodd" d="M14.9835 4.43095C15.4359 4.73251 15.5581 5.34368 15.2565 5.79603L10.0065 13.671C9.84296 13.9164 9.57797 14.0755 9.2845 14.1046C8.99102 14.1336 8.69998 14.0296 8.49144 13.8211L5.86644 11.1961C5.48202 10.8116 5.48202 10.1884 5.86644 9.80394C6.25086 9.41952 6.87414 9.41952 7.25856 9.80394L9.0345 11.5799L13.6185 4.70396C13.92 4.25162 14.5312 4.12938 14.9835 4.43095Z" fill="white"/>
<defs>
<linearGradient id="paint0_linear_190_245" x1="10.5" y1="2.625" x2="10.5" y2="17.0625" gradientUnits="userSpaceOnUse">
<stop stop-color="#D9F2DA"/>
<stop offset="1" stop-color="#98DDB5"/>
</linearGradient>
</defs>
</svg>
