<svg width="21" height="21" viewBox="0 0 21 21" fill="none" xmlns="http://www.w3.org/2000/svg">
<path d="M1.96875 3.28125C1.96875 2.19394 2.85019 1.3125 3.9375 1.3125H17.0625C18.1498 1.3125 19.0312 2.19394 19.0312 3.28125V17.7188C19.0312 18.8061 18.1498 19.6875 17.0625 19.6875H3.9375C2.85019 19.6875 1.96875 18.8061 1.96875 17.7188V3.28125Z" fill="#812213"/>
<path d="M3.28125 16.4062C3.28125 16.0438 3.57506 15.75 3.9375 15.75H17.0625C17.4249 15.75 17.7188 16.0438 17.7188 16.4062V17.7188C17.7188 18.0812 17.4249 18.375 17.0625 18.375H3.9375C3.57506 18.375 3.28125 18.0812 3.28125 17.7188V16.4062Z" fill="#F74339"/>
<path d="M3.28125 3.28125C3.28125 2.91881 3.57506 2.625 3.9375 2.625H17.0625C17.4249 2.625 17.7188 2.91881 17.7188 3.28125V16.4062C17.7188 16.7687 17.4249 17.0625 17.0625 17.0625H3.9375C3.57506 17.0625 3.28125 16.7687 3.28125 16.4062V3.28125Z" fill="url(#paint0_linear_190_283)"/>
<path fill-rule="evenodd" clip-rule="evenodd" d="M6.5625 4.26562C7.10616 4.26562 7.54688 4.70634 7.54688 5.25V6.15476L10.5 9.10788L13.4531 6.15476V5.25C13.4531 4.70634 13.8938 4.26562 14.4375 4.26562C14.9812 4.26562 15.4219 4.70634 15.4219 5.25V6.5625C15.4219 6.82357 15.3182 7.07395 15.1336 7.25856L11.8921 10.5L13.7824 12.3903C13.9564 12.235 14.1859 12.1406 14.4375 12.1406C14.9812 12.1406 15.4219 12.5813 15.4219 13.125V14.4375C15.4219 14.8356 15.182 15.1946 14.8142 15.3469C14.4464 15.4993 14.023 15.4151 13.7414 15.1336L10.5 11.8921L7.25856 15.1336C6.97703 15.4151 6.55363 15.4993 6.1858 15.3469C5.81796 15.1946 5.57812 14.8356 5.57812 14.4375V13.125C5.57812 12.5813 6.01884 12.1406 6.5625 12.1406C6.81407 12.1406 7.0436 12.235 7.21762 12.3903L9.10788 10.5L5.86644 7.25856C5.68184 7.07395 5.57812 6.82357 5.57812 6.5625V5.25C5.57812 4.70634 6.01884 4.26562 6.5625 4.26562Z" fill="#F74339"/>
<path fill-rule="evenodd" clip-rule="evenodd" d="M5.86644 4.55394C6.25086 4.16952 6.87414 4.16952 7.25856 4.55394L10.5 7.79538L13.7414 4.55394C14.1259 4.16952 14.7491 4.16952 15.1336 4.55394C15.518 4.93836 15.518 5.56164 15.1336 5.94606L11.8921 9.1875L15.1336 12.4289C15.518 12.8134 15.518 13.4366 15.1336 13.8211C14.7491 14.2055 14.1259 14.2055 13.7414 13.8211L10.5 10.5796L7.25856 13.8211C6.87414 14.2055 6.25086 14.2055 5.86644 13.8211C5.48202 13.4366 5.48202 12.8134 5.86644 12.4289L9.10788 9.1875L5.86644 5.94606C5.48202 5.56164 5.48202 4.93836 5.86644 4.55394Z" fill="white"/>
<defs>
<linearGradient id="paint0_linear_190_283" x1="10.5" y1="2.625" x2="10.5" y2="17.0625" gradientUnits="userSpaceOnUse">
<stop stop-color="#FFCAC7"/>
<stop offset="1" stop-color="#FF6860"/>
</linearGradient>
</defs>
</svg>
