<svg width="74" height="74" viewBox="0 0 74 74" fill="none" xmlns="http://www.w3.org/2000/svg">
<g clip-path="url(#clip0_50_130)">
<path d="M49.6001 58.1996C53.4451 56.4432 56.8968 53.9302 59.7491 50.8105C62.6015 47.6908 64.796 44.0283 66.2017 40.0418C63.9032 42.6952 58.8018 45.9373 55.5913 47.2622C54.8366 47.6664 54.0035 47.9029 53.149 47.9555C53.0957 47.9509 53.046 47.9265 53.0098 47.8871C52.9735 47.8476 52.9535 47.796 52.9535 47.7425C52.9571 46.9479 52.9802 46.2478 52.9479 45.5502C52.7774 41.8756 51.1827 38.8379 48.7392 36.1775C47.7067 35.0534 46.6516 33.9428 45.7091 32.7455C45.0554 31.9152 44.6723 30.9051 45.6476 30.0203C46.8776 28.9044 47.2175 27.4228 47.4309 25.9064C47.8763 22.8622 47.3686 19.7549 45.9776 17.0107C45.4913 17.6744 45.2948 18.029 45.0361 18.4392C43.6354 20.6598 41.2686 21.0208 38.845 20.7882C37.8684 20.6437 36.9426 20.26 36.15 19.6714C35.209 18.9625 34.429 18.0622 33.8615 17.0298C32.7484 19.4637 32.2445 22.132 32.3932 24.8043C32.493 26.7264 32.7555 28.7431 34.3276 30.0216C35.3336 30.8396 35.3594 31.66 35.2262 32.6871C34.8137 35.8666 34.9585 39.0567 35.0127 42.2466C35.03 43.263 35.4689 44.2571 35.2702 45.2716C35.262 45.3134 35.241 45.3516 35.2099 45.3808C35.1789 45.41 35.1396 45.4287 35.0974 45.4343C34.8866 45.4354 34.6778 45.3936 34.4835 45.3117C34.2893 45.2297 34.1138 45.1093 33.9674 44.9575C30.7194 42.5123 27.8974 39.768 26.048 35.9985C22.0104 27.7695 22.6248 15.9379 30.9631 8.6978C34.9482 5.23755 42.851 2.43333 47.6129 1.95207C33.2228 -3.40916 20.6257 3.17613 14.2296 10.7822C5.98091 20.5913 4.63535 34.0393 10.6439 44.5048C18.6094 58.3792 30.8731 63.0161 46.4535 59.729C46.4806 59.7231 46.5087 59.7231 46.5359 59.7289C46.563 59.7348 46.5887 59.7463 46.611 59.7628C46.6334 59.7793 46.652 59.8004 46.6656 59.8246C46.6792 59.8489 46.6874 59.8757 46.6899 59.9034C46.8703 62.0369 47.0706 64.1646 47.2141 66.2962C47.2717 67.1881 47.2588 68.0832 47.1754 68.9731C47.0225 70.6438 46.3248 71.1048 44.7374 70.594C44.1259 70.424 43.541 70.1693 42.9999 69.8374C42.4551 69.4753 41.7398 69.2858 41.2553 69.8621C40.8049 70.3978 41.0194 71.0424 41.3596 71.6402C41.7319 72.2369 42.2262 72.7481 42.81 73.1402C43.3939 73.5324 44.0541 73.7966 44.7473 73.9155C46.7389 74.4052 49.3155 72.6886 49.7751 70.783C50.1814 69.0985 49.9157 67.2283 49.5917 65.47C49.2436 63.5811 48.9304 61.9612 48.6549 60.3311C48.4218 58.9519 48.2252 58.8481 49.6001 58.1996ZM36.5662 28.2541C36.1877 28.2541 35.8178 28.1419 35.5032 27.9317C35.1886 27.7214 34.9434 27.4226 34.7986 27.073C34.6537 26.7234 34.6159 26.3387 34.6897 25.9676C34.7635 25.5965 34.9457 25.2556 35.2133 24.988C35.4809 24.7204 35.8218 24.5382 36.1929 24.4644C36.564 24.3906 36.9487 24.4285 37.2983 24.5733C37.6479 24.7181 37.9467 24.9633 38.1569 25.2779C38.3672 25.5926 38.4794 25.9625 38.4794 26.3409C38.4794 26.5921 38.4299 26.8409 38.3337 27.073C38.2376 27.3051 38.0967 27.5161 37.919 27.6937C37.7414 27.8714 37.5304 28.0123 37.2983 28.1085C37.0662 28.2046 36.8174 28.2541 36.5662 28.2541ZM39.9813 29.0839C39.7606 29.067 39.5522 28.9758 39.3901 28.825C39.228 28.6743 39.1219 28.473 39.0891 28.2541C39.0891 27.9423 39.4885 27.8002 39.9813 27.8002C40.4741 27.8002 40.8735 27.9423 40.8735 28.2541C40.8407 28.473 40.7346 28.6743 40.5725 28.825C40.4104 28.9757 40.202 29.067 39.9813 29.0839ZM43.4046 28.2541C43.0262 28.2541 42.6563 28.1419 42.3417 27.9317C42.0271 27.7214 41.7818 27.4226 41.637 27.073C41.4922 26.7234 41.4543 26.3387 41.5282 25.9676C41.602 25.5965 41.7842 25.2556 42.0518 24.988C42.3193 24.7204 42.6602 24.5382 43.0314 24.4644C43.4025 24.3906 43.7872 24.4285 44.1368 24.5733C44.4864 24.7181 44.7852 24.9633 44.9954 25.2779C45.2056 25.5926 45.3179 25.9625 45.3179 26.3409C45.3179 26.5921 45.2684 26.8409 45.1722 27.073C45.0761 27.3051 44.9351 27.5161 44.7575 27.6937C44.5798 27.8714 44.3689 28.0123 44.1368 28.1085C43.9047 28.2046 43.6559 28.2541 43.4046 28.2541Z" fill="#182A38"/>
<path d="M36.9505 26.7076C37.3751 26.7076 37.7193 26.3634 37.7193 25.9388C37.7193 25.5142 37.3751 25.17 36.9505 25.17C36.5259 25.17 36.1816 25.5142 36.1816 25.9388C36.1816 26.3634 36.5259 26.7076 36.9505 26.7076Z" fill="#182A38"/>
<path d="M43.7893 26.7253C44.2139 26.7253 44.5582 26.3811 44.5582 25.9565C44.5582 25.5318 44.2139 25.1876 43.7893 25.1876C43.3647 25.1876 43.0205 25.5318 43.0205 25.9565C43.0205 26.3811 43.3647 26.7253 43.7893 26.7253Z" fill="#182A38"/>
<path d="M67.069 23.8872C66.4127 23.8872 65.7629 23.758 65.1566 23.5068C64.5503 23.2557 63.9994 22.8876 63.5353 22.4235C63.0713 21.9595 62.7032 21.4086 62.452 20.8023C62.2009 20.1959 62.0716 19.5461 62.0716 18.8898C62.0716 20.2152 61.5451 21.4863 60.6079 22.4235C59.6707 23.3607 58.3996 23.8872 57.0742 23.8872C58.3996 23.8872 59.6707 24.4137 60.6079 25.3509C61.5451 26.2881 62.0716 27.5592 62.0716 28.8846C62.0716 28.2284 62.2009 27.5785 62.452 26.9722C62.7032 26.3659 63.0713 25.815 63.5353 25.3509C63.9994 24.8869 64.5503 24.5188 65.1566 24.2676C65.7629 24.0165 66.4127 23.8872 67.069 23.8872Z" fill="#FFDF40"/>
<path d="M56.9824 10.7767C56.4902 10.7767 56.0028 10.6797 55.5481 10.4914C55.0934 10.303 54.6802 10.0269 54.3321 9.67889C53.9841 9.33086 53.708 8.91768 53.5197 8.46294C53.3313 8.00821 53.2344 7.52083 53.2344 7.02863C53.2344 7.52083 53.1374 8.00821 52.9491 8.46294C52.7607 8.91767 52.4846 9.33085 52.1366 9.67889C51.7886 10.0269 51.3754 10.303 50.9206 10.4914C50.4659 10.6797 49.9785 10.7767 49.4863 10.7767C50.4804 10.7767 51.4337 11.1716 52.1366 11.8744C52.8395 12.5773 53.2344 13.5307 53.2344 14.5247C53.2344 14.0325 53.3313 13.5451 53.5197 13.0904C53.708 12.6357 53.9841 12.2225 54.3321 11.8744C54.6802 11.5264 55.0934 11.2503 55.5481 11.062C56.0028 10.8736 56.4902 10.7767 56.9824 10.7767Z" fill="#FFDF40"/>
</g>
<defs>
<clipPath id="clip0_50_130">
<rect width="74" height="74" fill="white"/>
</clipPath>
</defs>
</svg>
